<svg width="321" height="350" viewBox="0 0 321 350" fill="none" xmlns="http://www.w3.org/2000/svg">
<g clip-path="url(#clip0_151_11)">
<path d="M313.645 267.731L168.103 348.221C163.659 350.679 158.185 350.675 153.744 348.211L8.33174 267.505C3.8908 265.041 1.15751 260.49 1.16147 255.567L1.29094 94.3718C1.29489 89.4489 4.03549 84.9019 8.48038 82.4437L154.022 1.95384C158.467 -0.504352 163.941 -0.500303 168.382 1.96446L313.794 82.6695C318.235 85.1343 320.968 89.6853 320.964 94.6083L320.834 255.803C320.831 260.726 318.09 265.273 313.645 267.731Z" fill="black" stroke="black" stroke-miterlimit="10"/>
<path d="M25.5578 235.544C24.8883 235.544 24.2547 235.412 23.657 235.149C23.0592 234.885 22.5369 234.534 22.0909 234.095C21.6445 233.656 21.2937 233.137 21.039 232.538C20.7839 231.94 20.6564 231.305 20.6564 230.634V220.816C20.6564 220.145 20.7839 219.511 21.039 218.912C21.2937 218.313 21.6445 217.795 22.0909 217.355C22.5369 216.916 23.0592 216.565 23.657 216.301C24.2547 216.038 24.8883 215.906 25.5578 215.906H42.1984C42.8679 215.906 43.5014 216.038 44.0992 216.301C44.697 216.565 45.2187 216.916 45.6653 217.355C46.1113 217.795 46.4621 218.313 46.7172 218.912C46.9719 219.511 47.0997 220.145 47.0997 220.816V225.246H42.1984V220.816H25.5578V230.634H42.1984C42.8679 230.634 43.5014 230.762 44.0992 231.018C44.697 231.273 45.2187 231.624 45.6653 232.071C46.1113 232.518 46.4621 233.041 46.7172 233.64C46.9719 234.239 47.0997 234.873 47.0997 235.544V245.339C47.0997 246.009 46.9719 246.644 46.7172 247.242C46.4621 247.841 46.1113 248.364 45.6653 248.811C45.2187 249.258 44.697 249.61 44.0992 249.865C43.5014 250.12 42.8679 250.248 42.1984 250.248H25.0796C24.4101 250.248 23.7765 250.12 23.1787 249.865C22.5811 249.61 22.0589 249.258 21.6128 248.811C21.1663 248.364 20.8155 247.841 20.5608 247.242C20.3057 246.644 20.1782 246.009 20.1782 245.339V240.932H25.0796V245.339H42.1984V235.544H25.5578Z" fill="white"/>
<path d="M85.3063 245.339C85.3063 246.009 85.1785 246.644 84.9238 247.242C84.6685 247.841 84.3177 248.364 83.8717 248.811C83.4253 249.258 82.9034 249.61 82.3058 249.865C81.708 250.12 81.0745 250.248 80.4049 250.248H73.0648V256.618H68.1635V250.248H60.8235C60.154 250.248 59.5205 250.12 58.9227 249.865C58.3249 249.61 57.8027 249.258 57.3566 248.811C56.9102 248.364 56.5595 247.841 56.3047 247.242C56.0496 246.644 55.9221 246.009 55.9221 245.339V220.816C55.9221 220.145 56.0496 219.511 56.3047 218.912C56.5595 218.313 56.9102 217.795 57.3566 217.355C57.8027 216.916 58.3249 216.565 58.9227 216.301C59.5205 216.038 60.154 215.906 60.8235 215.906H80.4049C81.0745 215.906 81.708 216.038 82.3058 216.301C82.9034 216.565 83.4253 216.916 83.8717 217.355C84.3177 217.795 84.6685 218.313 84.9238 218.912C85.1785 219.511 85.3063 220.145 85.3063 220.816V245.339ZM73.0648 241.363V245.339H80.4049V220.816H60.8235V245.339H68.1635V241.363H73.0648Z" fill="white"/>
<path d="M94.1049 215.906H99.0063V245.339H118.588V215.906H123.489V245.339C123.489 246.009 123.361 246.644 123.106 247.242C122.851 247.841 122.5 248.364 122.054 248.811C121.608 249.258 121.086 249.61 120.489 249.865C119.891 250.12 119.257 250.248 118.588 250.248H99.0063C98.3368 250.248 97.7032 250.12 97.1054 249.865C96.5077 249.61 95.9854 249.258 95.5394 248.811C95.093 248.364 94.7422 247.841 94.4875 247.242C94.2324 246.644 94.1049 246.009 94.1049 245.339V215.906Z" fill="white"/>
<path d="M147.47 215.906L160.691 250.248H155.79L152.753 242.345H137.284L134.248 250.248H129.347L142.568 215.906H147.47ZM139.149 237.436H150.865L145.031 222.301L139.149 237.436Z" fill="white"/>
<path d="M166.573 250.248V215.906H184.003C185.835 215.906 187.489 216.19 188.964 216.757C190.438 217.323 191.697 218.13 192.741 219.175C193.785 220.221 194.59 221.486 195.156 222.971C195.722 224.456 196.005 226.108 196.005 227.928V238.226C196.005 240.046 195.722 241.699 195.156 243.183C194.59 244.668 193.785 245.933 192.741 246.979C191.697 248.025 190.438 248.831 188.964 249.398C187.489 249.965 185.835 250.248 184.003 250.248H166.573ZM184.003 245.339C186.282 245.339 188.035 244.724 189.262 243.495C190.49 242.265 191.103 240.509 191.103 238.226V227.928C191.103 226.811 190.944 225.813 190.625 224.935C190.306 224.057 189.84 223.311 189.227 222.696C188.613 222.081 187.868 221.614 186.991 221.295C186.114 220.976 185.118 220.816 184.003 220.816H171.474V245.339H184.003Z" fill="white"/>
<path d="M226.178 232.335C226.895 232.559 227.549 232.878 228.138 233.293C228.728 233.708 229.23 234.239 229.645 234.885C230.059 235.532 230.378 236.294 230.601 237.172C230.824 238.05 230.936 239.056 230.936 240.19V241.914C230.936 247.47 228.162 250.248 222.615 250.248H203.847V215.906H221.635C227.182 215.906 229.956 218.692 229.956 224.264V224.887C229.956 226.819 229.648 228.395 229.035 229.617C228.421 230.838 227.469 231.744 226.178 232.335ZM208.652 220.72V230.491H221.827C223.006 230.443 223.854 230.12 224.373 229.521C224.891 228.922 225.15 228 225.15 226.755V224.504C225.15 223.195 224.863 222.237 224.289 221.63C223.715 221.023 222.783 220.72 221.492 220.72H208.652ZM208.652 235.28V245.434H222.472C223.763 245.434 224.695 245.131 225.269 244.524C225.843 243.918 226.13 242.968 226.13 241.674V239.016C226.13 237.707 225.843 236.757 225.269 236.166C224.695 235.576 223.763 235.28 222.472 235.28H208.652Z" fill="white"/>
<path d="M267.66 245.339C267.66 246.009 267.532 246.644 267.278 247.242C267.022 247.841 266.672 248.364 266.226 248.811C265.779 249.258 265.257 249.61 264.66 249.865C264.062 250.12 263.428 250.248 262.759 250.248H243.177C242.508 250.248 241.874 250.12 241.277 249.865C240.679 249.61 240.157 249.258 239.711 248.811C239.264 248.364 238.913 247.841 238.659 247.242C238.403 246.644 238.276 246.009 238.276 245.339V220.816C238.276 220.145 238.403 219.511 238.659 218.912C238.913 218.313 239.264 217.795 239.711 217.355C240.157 216.916 240.679 216.565 241.277 216.301C241.874 216.038 242.508 215.906 243.177 215.906H262.759C263.428 215.906 264.062 216.038 264.66 216.301C265.257 216.565 265.779 216.916 266.226 217.355C266.672 217.795 267.022 218.313 267.278 218.912C267.532 219.511 267.66 220.145 267.66 220.816V245.339ZM243.177 220.816V245.339H262.759V220.816H243.177Z" fill="white"/>
<path d="M273.517 215.906H300.941V220.816H289.68V250.248H284.779V220.816H273.517V215.906Z" fill="white"/>
<path d="M203.441 107.124L191.187 116.008L221.724 152.195L191.577 185.659L202.429 196.245L241.07 151.715L203.441 107.124Z" fill="white"/>
<path d="M121.372 107.124L83.7422 151.715L122.384 196.245L133.236 185.659L103.089 152.195L133.626 116.008L121.372 107.124Z" fill="white"/>
<path d="M172.247 111.965L139.636 186.529L150.89 191.061L183.5 116.497L172.247 111.965Z" fill="white"/>
</g>
<defs>
<clipPath id="clip0_151_11">
<rect width="320.833" height="350" fill="white"/>
</clipPath>
</defs>
</svg>
