<?xml version="1.0" encoding="utf-8"?>
<!-- Generator: Adobe Illustrator 26.4.1, SVG Export Plug-In . SVG Version: 6.00 Build 0)  -->
<svg version="1.0" id="Слой_1" xmlns="http://www.w3.org/2000/svg" xmlns:xlink="http://www.w3.org/1999/xlink" x="0px" y="0px"
	 viewBox="0 0 950 1080" enable-background="new 0 0 950 1080" xml:space="preserve">
<g>
	<path fill="#FFFFFF" stroke="#000000" stroke-miterlimit="10" d="M928.2770386,825.8917236l-432.4804688,248.4691162
		c-13.1360474,7.546875-29.2954102,7.5344238-42.4198303-0.0327148L21.281374,825.1950073
		c-13.1779642-7.5980225-21.2931557-21.6569824-21.281395-36.8684692L0.384525,290.9547119
		c0.0117607-15.2113342,8.1485653-29.2576599,21.3381119-36.8353271L454.2030945,5.65031
		c13.1360474-7.546937,29.2954102-7.534502,42.4198303,0.0326433l432.0953979,249.1331482
		c13.1779175,7.5980225,21.2931519,21.6569824,21.2813721,36.8684387l-0.3845215,497.3718567
		C949.6033936,804.2677612,941.4665527,818.3140259,928.2770386,825.8917236z"/>
	<g>
		<path d="M89.706543,708.3828125c-1.9887695,0-3.8710938-0.40625-5.6464844-1.21875
			c-1.7758789-0.8134766-3.3271484-1.8964844-4.6523438-3.2519531c-1.3261719-1.3544922-2.3681641-2.9560547-3.125-4.8037109
			c-0.7578125-1.8476562-1.1362305-3.8056641-1.1362305-5.875v-30.3007812c0-2.0693359,0.378418-4.0273438,1.1362305-5.875
			c0.7568359-1.8476562,1.7988281-3.4482422,3.125-4.8037109c1.3251953-1.3544922,2.8764648-2.4394531,4.6523438-3.2519531
			c1.7753906-0.8134766,3.6577148-1.2197266,5.6464844-1.2197266h49.4321289c1.9887695,0,3.8710938,0.40625,5.6464844,1.2197266
			c1.7753906,0.8125,3.3256836,1.8974609,4.6518555,3.2519531c1.3251953,1.3554688,2.3671875,2.9560547,3.125,4.8037109
			c0.7568359,1.8476562,1.1367188,3.8056641,1.1367188,5.875v13.671875h-14.5600586v-13.671875H89.706543v30.3007812h49.4321289
			c1.9887695,0,3.8710938,0.3945312,5.6464844,1.1816406c1.7753906,0.7890625,3.3256836,1.8730469,4.6518555,3.2519531
			c1.3251953,1.3798828,2.3671875,2.9931641,3.125,4.8408203c0.7568359,1.8476562,1.1367188,3.8056641,1.1367188,5.875v30.2265625
			c0,2.0693359-0.3798828,4.0283203-1.1367188,5.8759766c-0.7578125,1.8466797-1.7998047,3.4619141-3.125,4.8398438
			c-1.3261719,1.3798828-2.8764648,2.4648438-4.6518555,3.2519531c-1.7753906,0.7890625-3.6577148,1.1826172-5.6464844,1.1826172
			H88.2856445c-1.9882812,0-3.8706055-0.3935547-5.6459961-1.1826172c-1.7758789-0.7871094-3.3271484-1.8720703-4.6523438-3.2519531
			c-1.3261719-1.3779297-2.3681641-2.9931641-3.125-4.8398438c-0.7578125-1.8476562-1.1362305-3.8066406-1.1362305-5.8759766
			v-13.5976562h14.5595703v13.5976562h50.8530273v-30.2265625H89.706543z"/>
		<path d="M267.1943359,738.609375c0,2.0693359-0.3793945,4.0283203-1.1362305,5.8759766
			c-0.7583008,1.8466797-1.800293,3.4619141-3.125,4.8398438c-1.3261719,1.3798828-2.8764648,2.4648438-4.6523438,3.2519531
			c-1.7753906,0.7890625-3.6577148,1.1826172-5.6464844,1.1826172h-21.8041992v19.6582031h-14.5595703v-19.6582031h-21.8041992
			c-1.9887695,0-3.8710938-0.3935547-5.6464844-1.1826172c-1.7758789-0.7871094-3.3271484-1.8720703-4.6523438-3.2519531
			c-1.3261719-1.3779297-2.3681641-2.9931641-3.125-4.8398438c-0.7578125-1.8476562-1.1362305-3.8066406-1.1362305-5.8759766
			v-75.6767578c0-2.0693359,0.378418-4.0273438,1.1362305-5.875c0.7568359-1.8476562,1.7988281-3.4482422,3.125-4.8037109
			c1.3251953-1.3544922,2.8764648-2.4394531,4.6523438-3.2519531c1.7753906-0.8134766,3.6577148-1.2197266,5.6464844-1.2197266
			h58.1679688c1.9887695,0,3.8710938,0.40625,5.6464844,1.2197266c1.7758789,0.8125,3.3261719,1.8974609,4.6523438,3.2519531
			c1.324707,1.3554688,2.3666992,2.9560547,3.125,4.8037109c0.7568359,1.8476562,1.1362305,3.8056641,1.1362305,5.875V738.609375z
			 M230.8300781,726.3417969v12.2675781h21.8041992v-75.6767578h-58.1679688v75.6767578h21.8041992v-12.2675781H230.8300781z"/>
		<path d="M293.3310547,647.7822266h14.5600586v90.8271484h58.1679688v-90.8271484h14.5600586v90.8271484
			c0,2.0693359-0.3793945,4.0283203-1.1362305,5.8759766c-0.7583008,1.8466797-1.800293,3.4619141-3.125,4.8398438
			c-1.3261719,1.3798828-2.8764648,2.4648438-4.6523438,3.2519531c-1.7753906,0.7890625-3.6577148,1.1826172-5.6464844,1.1826172
			h-58.1679688c-1.9887695,0-3.8710938-0.3935547-5.6464844-1.1826172
			c-1.7758789-0.7871094-3.3271484-1.8720703-4.6523438-3.2519531c-1.3261719-1.3779297-2.3681641-2.9931641-3.125-4.8398438
			c-0.7578125-1.8476562-1.1362305-3.8066406-1.1362305-5.8759766V647.7822266z"/>
		<path d="M451.8554688,647.7822266l39.2763672,105.9775391h-14.5595703l-9.0205078-24.3876953h-45.9521484l-9.0200195,24.3876953
			h-14.5595703l39.2758789-105.9775391H451.8554688z M427.1396484,714.2216797h34.8017578l-17.3300781-46.7070312
			L427.1396484,714.2216797z"/>
		<path d="M508.6035156,753.7597656V647.7822266h51.7763672c5.4443359,0,10.3574219,0.8759766,14.7373047,2.6240234
			c4.3789062,1.7490234,8.1201172,4.2373047,11.2216797,7.4638672c3.1005859,3.2275391,5.4921875,7.1318359,7.1738281,11.7138672
			c1.6796875,4.5820312,2.5205078,9.6816406,2.5205078,15.2978516v31.7783203
			c0,5.6171875-0.8408203,10.7158203-2.5205078,15.2978516c-1.6816406,4.5820312-4.0732422,8.4873047-7.1738281,11.7138672
			c-3.1015625,3.2275391-6.8427734,5.7158203-11.2216797,7.4638672c-4.3798828,1.75-9.2929688,2.6240234-14.7373047,2.6240234
			H508.6035156z M560.3798828,738.609375c6.7705078,0,11.9785156-1.8955078,15.625-5.6904297
			c3.6455078-3.7929688,5.46875-9.2128906,5.46875-16.2587891v-31.7783203c0-3.4482422-0.4736328-6.5273438-1.4199219-9.2382812
			c-0.9482422-2.7089844-2.3330078-5.0126953-4.1552734-6.9091797c-1.8232422-1.8964844-4.0371094-3.3378906-6.640625-4.3232422
			c-2.6044922-0.9853516-5.5644531-1.4785156-8.8779297-1.4785156h-37.2167969v75.6767578H560.3798828z"/>
		<path d="M685.6650391,698.4804688c2.1308594,0.6904297,4.0722656,1.6748047,5.8242188,2.9560547
			c1.7509766,1.28125,3.2421875,2.9189453,4.4746094,4.9140625c1.2304688,1.9960938,2.1767578,4.3486328,2.8408203,7.0576172
			c0.6621094,2.7109375,0.9941406,5.8144531,0.9941406,9.3125v5.3203125c0,17.1455078-8.2382812,25.71875-24.7158203,25.71875
			h-55.7539062V647.7822266h52.8417969c16.4775391,0,24.7158203,8.5986328,24.7158203,25.7929688v1.9208984
			c0,5.9619141-0.9121094,10.8271484-2.734375,14.5957031C692.3291016,693.8613281,689.5,696.6582031,685.6650391,698.4804688z
			 M633.6044922,662.6367188v30.1533203h39.1347656c3.5029297-0.1484375,6.0244141-1.1455078,7.5634766-2.9931641
			c1.5380859-1.8476562,2.3085938-4.6933594,2.3085938-8.5361328v-6.9472656c0-4.0390625-0.8525391-6.9951172-2.5566406-8.8681641
			c-1.7050781-1.8720703-4.4746094-2.8085938-8.3105469-2.8085938H633.6044922z M633.6044922,707.5703125v31.3349609H674.65625
			c3.8359375,0,6.6054688-0.9355469,8.3095703-2.8085938c1.7050781-1.8720703,2.5576172-4.8037109,2.5576172-8.7939453v-8.203125
			c0-4.0400391-0.8525391-6.9716797-2.5576172-8.7949219c-1.7041016-1.8222656-4.4736328-2.734375-8.3095703-2.734375H633.6044922z"
			/>
		<path d="M808.8916016,738.609375c0,2.0693359-0.3798828,4.0283203-1.1367188,5.8759766
			c-0.7578125,1.8466797-1.7998047,3.4619141-3.125,4.8398438c-1.3261719,1.3798828-2.8759766,2.4648438-4.6513672,3.2519531
			c-1.7763672,0.7890625-3.6582031,1.1826172-5.6464844,1.1826172h-58.1689453
			c-1.9882812,0-3.8701172-0.3935547-5.6464844-1.1826172c-1.7753906-0.7871094-3.3261719-1.8720703-4.6513672-3.2519531
			c-1.3261719-1.3779297-2.3681641-2.9931641-3.125-4.8398438c-0.7587891-1.8476562-1.1367188-3.8066406-1.1367188-5.8759766
			v-75.6767578c0-2.0693359,0.3779297-4.0273438,1.1367188-5.875c0.7568359-1.8476562,1.7988281-3.4482422,3.125-4.8037109
			c1.3251953-1.3544922,2.8759766-2.4394531,4.6513672-3.2519531c1.7763672-0.8134766,3.6582031-1.2197266,5.6464844-1.2197266
			h58.1689453c1.9882812,0,3.8701172,0.40625,5.6464844,1.2197266c1.7753906,0.8125,3.3251953,1.8974609,4.6513672,3.2519531
			c1.3251953,1.3554688,2.3671875,2.9560547,3.125,4.8037109c0.7568359,1.8476562,1.1367188,3.8056641,1.1367188,5.875V738.609375z
			 M736.1630859,662.9326172v75.6767578h58.1689453v-75.6767578H736.1630859z"/>
		<path d="M826.2919922,647.7822266h81.4648438v15.1503906h-33.4521484v90.8271484h-14.5605469v-90.8271484h-33.4521484V647.7822266
			z"/>
	</g>
	<g>
		<polygon points="596.895813,335.1845093 560.4941406,362.600708 651.2077026,474.2723999 561.6535034,577.5437012 
			593.8901367,610.2107544 708.6779785,472.7923889 		"/>
		<polygon points="353.1037292,335.1845093 241.321579,472.7923889 356.109436,610.2107544 388.3457947,577.5437012 
			298.7918396,474.2723999 389.5056152,362.600708 		"/>
		<polygon points="407.3599548,580.2264404 440.7886963,594.2120972 537.6604614,364.1113586 504.2315063,350.1258545 		"/>
	</g>
</g>
<g>
</g>
<g>
</g>
<g>
</g>
<g>
</g>
<g>
</g>
<g>
</g>
<g>
</g>
<g>
</g>
<g>
</g>
<g>
</g>
<g>
</g>
<g>
</g>
<g>
</g>
<g>
</g>
<g>
</g>
</svg>
