<svg width="1920" height="371" viewBox="0 0 1920 371" fill="none" xmlns="http://www.w3.org/2000/svg">
<path d="M1920 265.929L1919.93 28.2445C1917.25 27.6502 1914.48 27.4322 1911.7 27.6163L1840.78 32.3135C1832.85 32.839 1825.44 36.596 1820.2 42.7582L1786.7 82.1074L1764.34 68.9334C1757.43 64.8603 1749.23 63.7786 1741.55 65.9265L1739.54 66.4885C1736.24 59.8191 1730.69 54.5784 1723.91 51.7852L1657.88 24.5903C1650.51 21.5517 1642.27 21.6524 1634.98 24.8702L1569.73 53.6691C1565.58 55.4978 1561.94 58.2506 1559.02 61.6791L1542.59 44.615C1536.99 38.7879 1529.36 35.4885 1521.41 35.4428L1450.39 35.0347C1442.44 34.9891 1434.79 38.202 1429.14 43.9667L1378.78 95.3775C1378.08 96.091 1377.42 96.8368 1376.8 97.6107L1329.12 89.5565C1324.38 88.756 1319.58 89.1527 1315.09 90.6374L1310.69 81.0453C1307.29 73.6529 1301.2 67.9476 1293.72 65.1778L1226.81 40.3659C1219.61 37.6962 1211.7 37.9732 1204.71 41.1009L1174.69 21.1974C1168.01 16.771 1159.91 15.2532 1152.16 16.9761L1082.73 32.4157C1077.65 33.5463 1072.99 36.0187 1069.17 39.5202L1005.56 13.9813C998.141 11.0041 989.881 11.1825 982.593 14.477L917.68 43.8215C915.851 44.6483 914.121 45.6543 912.51 46.8181L859.671 6.16093C853.29 1.25109 845.278 -0.851759 837.399 0.314903L767.159 10.7152C759.272 11.8832 752.163 16.2317 747.401 22.8025L713.722 69.2777C708.984 65.3931 703.187 63.0432 697.065 62.6227L654.752 59.7138C651.266 56.1089 646.944 53.407 642.135 51.911L574.08 30.7427C566.47 28.3756 558.269 29.2157 551.276 33.0786L488.735 67.6248C482.971 70.8081 478.421 75.8329 475.715 81.8871C475.364 81.8405 475.014 81.7928 474.661 81.7589L427.568 77.2445L390.537 42.6023C384.64 37.0853 376.86 34.2014 368.908 34.5846L319.93 36.9458L259.48 13.2982C252.041 10.3878 243.782 10.6403 236.523 14.0004L171.862 43.9274C167.296 46.0406 163.362 49.2748 160.367 53.289C156.482 53.6835 152.675 54.8595 149.17 56.7956L86.6293 91.3415C81.2125 94.3333 76.8706 98.9537 74.1205 104.524L63.0726 98.0131C56.1617 93.94 47.9636 92.8583 40.2818 95.0052L0 106.266V194.672V335.162V371H1919.92V265.934L1920 265.929Z" fill="#232323"/>
</svg>
