<svg width="1919" height="877" viewBox="0 0 1919 877" fill="none" xmlns="http://www.w3.org/2000/svg">
<path d="M1.52588e-05 637.371L0.0744782 851.549C2.75246 852.084 5.51943 852.281 8.30129 852.115L79.2161 847.882C87.1509 847.409 94.5562 844.023 99.8029 838.471L133.304 803.013L155.657 814.884C162.573 818.555 170.767 819.529 178.453 817.594L180.463 817.087C183.763 823.097 189.305 827.82 196.091 830.336L262.119 854.842C269.494 857.58 277.729 857.489 285.025 854.59L350.273 828.639C354.417 826.991 358.061 824.511 360.977 821.421L377.405 836.797C383.012 842.048 390.637 845.021 398.592 845.063L469.607 845.43C477.562 845.471 485.207 842.576 490.863 837.382L541.221 791.056C541.92 790.413 542.581 789.741 543.203 789.043L590.879 796.301C595.621 797.022 600.422 796.665 604.906 795.327L609.307 803.97C612.705 810.631 618.801 815.773 626.277 818.268L693.194 840.626C700.392 843.032 708.298 842.782 715.293 839.964L745.311 857.899C751.986 861.888 760.091 863.255 767.836 861.703L837.272 847.79C842.354 846.771 847.011 844.544 850.831 841.388L914.443 864.401C921.859 867.084 930.119 866.923 937.407 863.955L1002.32 837.512C1004.15 836.768 1005.88 835.861 1007.49 834.812L1060.33 871.448C1066.71 875.873 1074.72 877.768 1082.6 876.716L1152.84 867.345C1160.73 866.292 1167.84 862.374 1172.6 856.453L1206.28 814.574C1211.02 818.074 1216.81 820.192 1222.93 820.571L1265.25 823.192C1268.73 826.44 1273.06 828.875 1277.87 830.223L1345.92 849.298C1353.53 851.431 1361.73 850.674 1368.72 847.193L1431.27 816.063C1437.03 813.195 1441.58 808.667 1444.29 803.212C1444.64 803.254 1444.99 803.297 1445.34 803.327L1492.43 807.395L1529.46 838.611C1535.36 843.582 1543.14 846.181 1551.09 845.836L1600.07 843.708L1660.52 865.017C1667.96 867.64 1676.22 867.412 1683.48 864.384L1748.14 837.417C1752.7 835.513 1756.64 832.599 1759.63 828.981C1763.52 828.626 1767.33 827.566 1770.83 825.822L1833.37 794.692C1838.79 791.996 1843.13 787.833 1845.88 782.813L1856.93 788.681C1863.84 792.351 1872.04 793.326 1879.72 791.391L1920 781.243V701.582V574.986V542.692L0.0761871 542.692V637.367L1.52588e-05 637.371Z" fill="#232323"/>
<rect width="1920" height="542.693" fill="#232323"/>
</svg>
