<svg width="56" height="60" viewBox="0 0 56 60" fill="none" xmlns="http://www.w3.org/2000/svg">
<g clip-path="url(#clip0_128_2)">
<path d="M54.2424 45.8822L29.204 59.6859C28.4435 60.1051 27.508 60.1044 26.7481 59.684L1.73208 45.8435C0.969147 45.4214 0.49932 44.6403 0.500001 43.7953L0.522264 16.1638C0.522945 15.3188 0.994023 14.5384 1.75763 14.1174L26.796 0.313784C27.5565 -0.105485 28.492 -0.104795 29.2519 0.315597L54.2679 14.1562C55.0309 14.5783 55.5007 15.3593 55.5 16.2044L55.4777 43.8358C55.4771 44.6809 55.006 45.4612 54.2424 45.8822Z" fill="white"/>
<path d="M9.05545 38.8541H8.76494L9.05545 38.8551V38.8541Z" fill="black" stroke="black"/>
<path d="M15.9032 41.3598L15.6261 41.2411V41.0333V36.8291V36.6213L11.1622 36.2359C11.2389 36.1606 11.3287 36.1003 11.4315 36.0552C11.5343 36.01 11.6433 35.9874 11.7584 35.9874H15.1261C15.2412 35.9874 15.3502 36.01 15.453 36.0552C15.5558 36.1003 15.6455 36.1606 15.7223 36.2359M15.9032 41.3598L15.6261 41.2414V41.5322V41.5322V41.5333H15.3356H15.3353H15.1261H13.8637H13.5208V41.875V42.4671H13.8637V42.375V41.875H14.3637H15.1261C15.2412 41.875 15.3502 41.8531 15.453 41.8093C15.5558 41.7656 15.6455 41.7053 15.7223 41.6286C15.799 41.5521 15.8593 41.4623 15.9032 41.3598ZM15.9032 41.3598C15.9471 41.2571 15.969 41.1483 15.969 41.0333V36.8291C15.969 36.7141 15.9471 36.6054 15.9032 36.5027C15.8593 36.4001 15.799 36.3112 15.7223 36.2359M15.7223 36.2359L15.6261 36.3341M15.7223 36.2359L15.6261 36.3339V36.3291H15.3327H15.3325H15.1261H11.7584H11.552H11.5518H11.2584V36.334V36.334V36.621V36.6212V36.8291V41.0333V41.2413V41.2414V41.5321V41.5323V41.5333H11.5489H11.5492H11.7584H13.0208L15.6261 36.3341M15.6261 36.3341V36.621L15.9032 36.5027L15.6261 36.3341Z" fill="black" stroke="black"/>
<path d="M22.4701 41.3598C22.4262 41.4623 22.3659 41.5521 22.2892 41.6286C22.2124 41.7053 22.1226 41.7656 22.0198 41.8093C21.917 41.8531 21.8081 41.875 21.6929 41.875H18.3253C18.2102 41.875 18.1012 41.8531 17.9984 41.8093M22.4701 41.3598C22.5139 41.2571 22.5359 41.1483 22.5359 41.0333V36.4874H22.1929V41.0333V41.2411L22.4701 41.3598ZM22.4701 41.3598L22.1929 41.2414V41.5322V41.5322V41.5333H21.9025H21.9021H21.6929H18.3253H18.1161H18.1158H17.8253V41.5323V41.5321V41.2414V41.2413V41.0333V36.4874H17.4824V41.0333C17.4824 41.1483 17.5043 41.2571 17.5481 41.3598M17.5481 41.3598C17.592 41.4623 17.6523 41.5521 17.7291 41.6286C17.8058 41.7053 17.8956 41.7656 17.9984 41.8093M17.5481 41.3598L17.5482 41.3597L17.5481 41.3598ZM17.9984 41.8093L17.9984 41.8093L17.9984 41.8093ZM18.3253 36.4874H17.9824H18.3253ZM18.3253 36.4874V40.5333V41.0333H18.8253H21.1929H21.6929V40.5333V36.4874H22.0359H18.3253Z" fill="black" stroke="black"/>
<mask id="path-5-inside-1_128_2" fill="white">
<path d="M26.66 35.9874L28.9339 41.875H28.091L27.5688 40.5201H24.9084L24.3862 41.875H23.5432L25.8171 35.9874H26.66ZM25.2291 39.6785H27.244L26.2406 37.0837L25.2291 39.6785Z"/>
</mask>
<path d="M26.66 35.9874L28.9339 41.875H28.091L27.5688 40.5201H24.9084L24.3862 41.875H23.5432L25.8171 35.9874H26.66ZM25.2291 39.6785H27.244L26.2406 37.0837L25.2291 39.6785Z" fill="black"/>
<path d="M26.66 35.9874L27.5929 35.6271L27.3458 34.9874H26.66V35.9874ZM28.9339 41.875V42.875H30.3921L29.8668 41.5147L28.9339 41.875ZM28.091 41.875L27.1579 42.2347L27.4047 42.875H28.091V41.875ZM27.5688 40.5201L28.5018 40.1605L28.255 39.5201H27.5688V40.5201ZM24.9084 40.5201V39.5201H24.2221L23.9753 40.1605L24.9084 40.5201ZM24.3862 41.875V42.875H25.0724L25.3193 42.2346L24.3862 41.875ZM23.5432 41.875L22.6104 41.5147L22.085 42.875H23.5432V41.875ZM25.8171 35.9874V34.9874H25.1313L24.8843 35.6271L25.8171 35.9874ZM25.2291 39.6785L24.2974 39.3153L23.766 40.6785H25.2291V39.6785ZM27.244 39.6785V40.6785H28.7028L28.1767 39.3178L27.244 39.6785ZM26.2406 37.0837L27.1733 36.723L26.2444 34.3207L25.3089 36.7205L26.2406 37.0837ZM25.7272 36.3477L28.0011 42.2353L29.8668 41.5147L27.5929 35.6271L25.7272 36.3477ZM28.9339 40.875H28.091V42.875H28.9339V40.875ZM29.0241 41.5153L28.5018 40.1605L26.6357 40.8798L27.1579 42.2347L29.0241 41.5153ZM27.5688 39.5201H24.9084V41.5201H27.5688V39.5201ZM23.9753 40.1605L23.4531 41.5153L25.3193 42.2346L25.8415 40.8798L23.9753 40.1605ZM24.3862 40.875H23.5432V42.875H24.3862V40.875ZM24.4761 42.2353L26.75 36.3477L24.8843 35.6271L22.6104 41.5147L24.4761 42.2353ZM25.8171 36.9874H26.66V34.9874H25.8171V36.9874ZM25.2291 40.6785H27.244V38.6785H25.2291V40.6785ZM28.1767 39.3178L27.1733 36.723L25.3079 37.4443L26.3113 40.0391L28.1767 39.3178ZM25.3089 36.7205L24.2974 39.3153L26.1608 40.0417L27.1723 37.4469L25.3089 36.7205Z" fill="black" mask="url(#path-5-inside-1_128_2)"/>
<mask id="path-7-inside-2_128_2" fill="white">
<path d="M29.9455 41.875V35.9874H32.9431C33.2583 35.9874 33.5427 36.0361 33.7963 36.1332C34.0498 36.2304 34.2664 36.3686 34.446 36.5479C34.6255 36.7272 34.764 36.9441 34.8613 37.1986C34.9586 37.4532 35.0072 37.7365 35.0072 38.0485V39.8139C35.0072 40.126 34.9586 40.4092 34.8613 40.6638C34.764 40.9184 34.6255 41.1353 34.446 41.3146C34.2664 41.4939 34.0498 41.6321 33.7963 41.7292C33.5427 41.8264 33.2583 41.875 32.9431 41.875H29.9455ZM32.9431 41.0333C33.3351 41.0333 33.6366 40.928 33.8477 40.7172C34.0588 40.5065 34.1643 40.2054 34.1643 39.8139V38.0485C34.1643 37.8569 34.1369 37.6859 34.0821 37.5353C34.0272 37.3848 33.9471 37.2568 33.8416 37.1514C33.736 37.0461 33.6078 36.966 33.4571 36.9112C33.3063 36.8565 33.1349 36.8291 32.9431 36.8291H30.7884V41.0333H32.9431Z"/>
</mask>
<path d="M29.9455 41.875V35.9874H32.9431C33.2583 35.9874 33.5427 36.0361 33.7963 36.1332C34.0498 36.2304 34.2664 36.3686 34.446 36.5479C34.6255 36.7272 34.764 36.9441 34.8613 37.1986C34.9586 37.4532 35.0072 37.7365 35.0072 38.0485V39.8139C35.0072 40.126 34.9586 40.4092 34.8613 40.6638C34.764 40.9184 34.6255 41.1353 34.446 41.3146C34.2664 41.4939 34.0498 41.6321 33.7963 41.7292C33.5427 41.8264 33.2583 41.875 32.9431 41.875H29.9455ZM32.9431 41.0333C33.3351 41.0333 33.6366 40.928 33.8477 40.7172C34.0588 40.5065 34.1643 40.2054 34.1643 39.8139V38.0485C34.1643 37.8569 34.1369 37.6859 34.0821 37.5353C34.0272 37.3848 33.9471 37.2568 33.8416 37.1514C33.736 37.0461 33.6078 36.966 33.4571 36.9112C33.3063 36.8565 33.1349 36.8291 32.9431 36.8291H30.7884V41.0333H32.9431Z" fill="black"/>
<path d="M29.9455 41.875H28.9455V42.875H29.9455V41.875ZM29.9455 35.9874V34.9874H28.9455V35.9874H29.9455ZM33.7963 36.1332L34.1542 35.1994L34.154 35.1993L33.7963 36.1332ZM34.446 36.5479L35.1527 35.8404L35.1525 35.8401L34.446 36.5479ZM34.8613 37.1986L35.7955 36.8418L35.7953 36.8414L34.8613 37.1986ZM34.8613 40.6638L35.7953 41.021L35.7955 41.0207L34.8613 40.6638ZM34.446 41.3146L35.1526 42.0222L35.1526 42.0222L34.446 41.3146ZM33.7963 41.7292L33.4386 40.7954L33.4383 40.7955L33.7963 41.7292ZM33.8477 40.7172L33.1412 40.0095L33.1411 40.0096L33.8477 40.7172ZM34.0821 37.5353L35.0219 37.1934L35.0216 37.1926L34.0821 37.5353ZM33.8416 37.1514L34.5482 36.4438L34.548 36.4437L33.8416 37.1514ZM33.4571 36.9112L33.7985 35.9713L33.7983 35.9713L33.4571 36.9112ZM30.7884 36.8291V35.8291H29.7884V36.8291H30.7884ZM30.7884 41.0333H29.7884V42.0333H30.7884V41.0333ZM30.9455 41.875V35.9874H28.9455V41.875H30.9455ZM29.9455 36.9874H32.9431V34.9874H29.9455V36.9874ZM32.9431 36.9874C33.1552 36.9874 33.3159 37.02 33.4387 37.0671L34.154 35.1993C33.7696 35.0522 33.3615 34.9874 32.9431 34.9874V36.9874ZM33.4384 37.067C33.5705 37.1176 33.6659 37.1821 33.7395 37.2556L35.1525 35.8401C34.867 35.5551 34.5291 35.3431 34.1542 35.1994L33.4384 37.067ZM33.7393 37.2554C33.8121 37.3281 33.8765 37.423 33.9273 37.5558L35.7953 36.8414C35.6515 36.4652 35.439 36.1263 35.1527 35.8404L33.7393 37.2554ZM33.9272 37.5555C33.9751 37.6809 34.0072 37.8411 34.0072 38.0485H36.0072C36.0072 37.6319 35.942 37.2254 35.7955 36.8418L33.9272 37.5555ZM34.0072 38.0485V39.8139H36.0072V38.0485H34.0072ZM34.0072 39.8139C34.0072 40.0214 33.9751 40.1815 33.9272 40.3069L35.7955 41.0207C35.942 40.637 36.0072 40.2306 36.0072 39.8139H34.0072ZM33.9273 40.3066C33.8764 40.4396 33.812 40.5344 33.7394 40.6069L35.1526 42.0222C35.439 41.7362 35.6515 41.3971 35.7953 41.021L33.9273 40.3066ZM33.7394 40.6069C33.6658 40.6804 33.5706 40.7448 33.4386 40.7954L34.154 42.663C34.5291 42.5194 34.8671 42.3073 35.1526 42.0222L33.7394 40.6069ZM33.4383 40.7955C33.3159 40.8424 33.1554 40.875 32.9431 40.875V42.875C33.3612 42.875 33.7696 42.8105 34.1543 42.6629L33.4383 40.7955ZM32.9431 40.875H29.9455V42.875H32.9431V40.875ZM32.9431 42.0333C33.5135 42.0333 34.1023 41.8762 34.5543 41.4248L33.1411 40.0096C33.1492 40.0015 33.1526 40.0035 33.1334 40.0103C33.1097 40.0186 33.0514 40.0333 32.9431 40.0333V42.0333ZM34.5543 41.4249C35.0065 40.9734 35.1643 40.3847 35.1643 39.8139H33.1643C33.1643 39.9216 33.1496 39.9793 33.1415 40.0025C33.1349 40.0213 33.133 40.0177 33.1412 40.0095L34.5543 41.4249ZM35.1643 39.8139V38.0485H33.1643V39.8139H35.1643ZM35.1643 38.0485C35.1643 37.7624 35.1234 37.4725 35.0219 37.1934L33.1424 37.8771C33.1504 37.8992 33.1643 37.9515 33.1643 38.0485H35.1643ZM35.0216 37.1926C34.9205 36.9155 34.7647 36.6601 34.5482 36.4438L33.1349 37.859C33.1335 37.8576 33.1329 37.8566 33.1334 37.8574C33.1341 37.8585 33.1378 37.8645 33.1427 37.8779L35.0216 37.1926ZM34.548 36.4437C34.3315 36.2276 34.0759 36.0721 33.7985 35.9713L33.1157 37.8512C33.1292 37.8561 33.1353 37.8597 33.1364 37.8605C33.1374 37.861 33.1364 37.8605 33.1351 37.8592L34.548 36.4437ZM33.7983 35.9713C33.5192 35.8699 33.2292 35.8291 32.9431 35.8291V37.8291C33.0407 37.8291 33.0935 37.8431 33.1158 37.8512L33.7983 35.9713ZM32.9431 35.8291H30.7884V37.8291H32.9431V35.8291ZM29.7884 36.8291V41.0333H31.7884V36.8291H29.7884ZM30.7884 42.0333H32.9431V40.0333H30.7884V42.0333Z" fill="black" mask="url(#path-7-inside-2_128_2)"/>
<mask id="path-9-inside-3_128_2" fill="white">
<path d="M40.1964 38.804C40.3197 38.8423 40.4321 38.897 40.5336 38.9682C40.6349 39.0394 40.7213 39.1303 40.7926 39.2412C40.8639 39.3521 40.9186 39.4828 40.9571 39.6333C40.9954 39.7839 41.0146 39.9563 41.0146 40.1506V40.4462C41.0146 41.3987 40.5377 41.875 39.5837 41.875H36.3559V35.9874H39.4151C40.3691 35.9874 40.846 36.4651 40.846 37.4204V37.5271C40.846 37.8583 40.7932 38.1286 40.6877 38.3379C40.5822 38.5473 40.4184 38.7027 40.1964 38.804ZM37.1823 36.8127V38.4878H39.448C39.6508 38.4796 39.7968 38.4242 39.8859 38.3215C39.975 38.2189 40.0196 38.0608 40.0196 37.8473V37.4614C40.0196 37.237 39.9702 37.0728 39.8716 36.9687C39.7728 36.8647 39.6125 36.8127 39.3904 36.8127H37.1823ZM37.1823 39.3089V41.0498H39.559C39.7811 41.0498 39.9414 40.9978 40.0401 40.8937C40.1388 40.7897 40.1882 40.6269 40.1882 40.4052V39.9495C40.1882 39.725 40.1388 39.5621 40.0401 39.4609C39.9414 39.3596 39.7811 39.3089 39.559 39.3089H37.1823Z"/>
</mask>
<path d="M40.1964 38.804C40.3197 38.8423 40.4321 38.897 40.5336 38.9682C40.6349 39.0394 40.7213 39.1303 40.7926 39.2412C40.8639 39.3521 40.9186 39.4828 40.9571 39.6333C40.9954 39.7839 41.0146 39.9563 41.0146 40.1506V40.4462C41.0146 41.3987 40.5377 41.875 39.5837 41.875H36.3559V35.9874H39.4151C40.3691 35.9874 40.846 36.4651 40.846 37.4204V37.5271C40.846 37.8583 40.7932 38.1286 40.6877 38.3379C40.5822 38.5473 40.4184 38.7027 40.1964 38.804ZM37.1823 36.8127V38.4878H39.448C39.6508 38.4796 39.7968 38.4242 39.8859 38.3215C39.975 38.2189 40.0196 38.0608 40.0196 37.8473V37.4614C40.0196 37.237 39.9702 37.0728 39.8716 36.9687C39.7728 36.8647 39.6125 36.8127 39.3904 36.8127H37.1823ZM37.1823 39.3089V41.0498H39.559C39.7811 41.0498 39.9414 40.9978 40.0401 40.8937C40.1388 40.7897 40.1882 40.6269 40.1882 40.4052V39.9495C40.1882 39.725 40.1388 39.5621 40.0401 39.4609C39.9414 39.3596 39.7811 39.3089 39.559 39.3089H37.1823Z" fill="black"/>
<path d="M40.1964 38.804L39.7815 37.8941L37.3977 38.981L39.8995 39.7589L40.1964 38.804ZM40.5336 38.9682L41.1082 38.1498L41.108 38.1496L40.5336 38.9682ZM40.7926 39.2412L41.634 38.7007L41.6335 38.6999L40.7926 39.2412ZM40.9571 39.6333L41.9262 39.3866L41.926 39.3858L40.9571 39.6333ZM36.3559 41.875H35.3559V42.875H36.3559V41.875ZM36.3559 35.9874V34.9874H35.3559V35.9874H36.3559ZM40.6877 38.3379L41.5807 38.788L41.5808 38.7879L40.6877 38.3379ZM37.1823 36.8127V35.8127H36.1823V36.8127H37.1823ZM37.1823 38.4878H36.1823V39.4878H37.1823V38.4878ZM39.448 38.4878V39.4878H39.4684L39.4887 39.487L39.448 38.4878ZM39.8859 38.3215L40.6411 38.9771L40.6413 38.9768L39.8859 38.3215ZM39.8716 36.9687L40.5972 36.2807L40.5969 36.2803L39.8716 36.9687ZM37.1823 39.3089V38.3089H36.1823V39.3089H37.1823ZM37.1823 41.0498H36.1823V42.0498H37.1823V41.0498ZM40.0401 40.8937L39.3148 40.2053L39.3144 40.2057L40.0401 40.8937ZM40.0401 39.4609L39.3239 40.1588L39.3239 40.1588L40.0401 39.4609ZM39.8995 39.7589C39.9284 39.7679 39.9465 39.7778 39.9591 39.7867L41.108 38.1496C40.9178 38.0162 40.711 37.9168 40.4933 37.849L39.8995 39.7589ZM39.9589 39.7866C39.9545 39.7835 39.951 39.7803 39.949 39.7781C39.947 39.7761 39.9482 39.7769 39.9518 39.7825L41.6335 38.6999C41.4967 38.4874 41.3221 38.2999 41.1082 38.1498L39.9589 39.7866ZM39.9513 39.7817C39.9552 39.7877 39.9716 39.8158 39.9882 39.8808L41.926 39.3858C41.8657 39.1497 41.7726 38.9164 41.634 38.7007L39.9513 39.7817ZM39.988 39.8799C40.0015 39.933 40.0146 40.02 40.0146 40.1506H42.0146C42.0146 39.8926 41.9893 39.6348 41.9262 39.3866L39.988 39.8799ZM40.0146 40.1506V40.4462H42.0146V40.1506H40.0146ZM40.0146 40.4462C40.0146 40.6038 39.9946 40.701 39.9767 40.7546C39.9681 40.7804 39.9604 40.795 39.9563 40.8018C39.9524 40.8083 39.9503 40.8102 39.9503 40.8102C39.9503 40.8102 39.9484 40.8123 39.9418 40.8162C39.9348 40.8204 39.92 40.8282 39.8939 40.8369C39.8398 40.8549 39.742 40.875 39.5837 40.875V42.875C40.2145 42.875 40.8713 42.7169 41.3635 42.2254C41.856 41.7336 42.0146 41.077 42.0146 40.4462H40.0146ZM39.5837 40.875H36.3559V42.875H39.5837V40.875ZM37.3559 41.875V35.9874H35.3559V41.875H37.3559ZM36.3559 36.9874H39.4151V34.9874H36.3559V36.9874ZM39.4151 36.9874C39.5731 36.9874 39.6707 37.0076 39.7245 37.0255C39.7505 37.0342 39.7651 37.042 39.7721 37.0461C39.7786 37.0501 39.7806 37.0522 39.7807 37.0523C39.7808 37.0524 39.783 37.0544 39.787 37.0611C39.7912 37.0682 39.7991 37.0831 39.8078 37.1093C39.8259 37.1637 39.846 37.2618 39.846 37.4204H41.846C41.846 36.7889 41.6878 36.1316 41.1959 35.6391C40.7038 35.1463 40.0466 34.9874 39.4151 34.9874V36.9874ZM39.846 37.4204V37.5271H41.846V37.4204H39.846ZM39.846 37.5271C39.846 37.7623 39.807 37.8635 39.7947 37.8879L41.5808 38.7879C41.7795 38.3936 41.846 37.9543 41.846 37.5271H39.846ZM39.7948 37.8878C39.7929 37.8915 39.7922 37.8922 39.7932 37.8909C39.7942 37.8895 39.7958 37.8877 39.7976 37.886C39.7993 37.8843 39.7999 37.8841 39.7982 37.8852C39.7964 37.8864 39.7913 37.8896 39.7815 37.8941L40.6112 39.7138C41.0314 39.5223 41.3684 39.2092 41.5807 38.788L39.7948 37.8878ZM36.1823 36.8127V38.4878H38.1823V36.8127H36.1823ZM37.1823 39.4878H39.448V37.4878H37.1823V39.4878ZM39.4887 39.487C39.8308 39.4731 40.2981 39.3721 40.6411 38.9771L39.1308 37.666C39.2955 37.4762 39.4709 37.4861 39.4074 37.4887L39.4887 39.487ZM40.6413 38.9768C40.9565 38.6135 41.0196 38.1713 41.0196 37.8473H39.0196C39.0196 37.8881 39.0149 37.8857 39.0237 37.8547C39.0331 37.821 39.0607 37.7468 39.1305 37.6662L40.6413 38.9768ZM41.0196 37.8473V37.4614H39.0196V37.8473H41.0196ZM41.0196 37.4614C41.0196 37.1202 40.9489 36.6515 40.5972 36.2807L39.1459 37.6567C39.0686 37.5752 39.0364 37.4962 39.0249 37.4577C39.0144 37.4228 39.0196 37.4184 39.0196 37.4614H41.0196ZM40.5969 36.2803C40.2273 35.8909 39.739 35.8127 39.3904 35.8127V37.8127C39.4279 37.8127 39.4141 37.8176 39.3687 37.8029C39.3181 37.7865 39.2304 37.7457 39.1463 37.6571L40.5969 36.2803ZM39.3904 35.8127H37.1823V37.8127H39.3904V35.8127ZM36.1823 39.3089V41.0498H38.1823V39.3089H36.1823ZM37.1823 42.0498H39.559V40.0498H37.1823V42.0498ZM39.559 42.0498C39.9072 42.0498 40.396 41.9717 40.7658 41.5818L39.3144 40.2057C39.3987 40.1168 39.4867 40.076 39.5374 40.0595C39.5828 40.0448 39.5966 40.0498 39.559 40.0498V42.0498ZM40.7654 41.5821C41.1157 41.213 41.1882 40.7475 41.1882 40.4052H39.1882C39.1882 40.4457 39.1832 40.4396 39.1941 40.4035C39.2062 40.3636 39.2387 40.2855 39.3148 40.2053L40.7654 41.5821ZM41.1882 40.4052V39.9495H39.1882V40.4052H41.1882ZM41.1882 39.9495C41.1882 39.6115 41.1188 39.1349 40.7562 38.7629L39.3239 40.1588C39.241 40.0736 39.2066 39.99 39.1941 39.949C39.1829 39.9119 39.1882 39.9061 39.1882 39.9495H41.1882ZM40.7563 38.7629C40.3858 38.3827 39.9012 38.3089 39.559 38.3089V40.3089C39.5985 40.3089 39.5874 40.314 39.5447 40.3005C39.4972 40.2855 39.4097 40.2468 39.3239 40.1588L40.7563 38.7629ZM39.559 38.3089H37.1823V40.3089H39.559V38.3089Z" fill="black" mask="url(#path-9-inside-3_128_2)"/>
<mask id="path-11-inside-4_128_2" fill="white">
<path d="M47.3306 41.0333C47.3306 41.1483 47.3086 41.2571 47.2647 41.3598C47.2209 41.4623 47.1606 41.5521 47.0838 41.6286C47.0071 41.7053 46.9173 41.7656 46.8145 41.8093C46.7117 41.8531 46.6027 41.875 46.4876 41.875H43.12C43.0049 41.875 42.8959 41.8531 42.7931 41.8093C42.6903 41.7656 42.6005 41.7053 42.5238 41.6286C42.447 41.5521 42.3867 41.4623 42.3428 41.3598C42.2989 41.2571 42.277 41.1483 42.277 41.0333V36.8291C42.277 36.7141 42.2989 36.6054 42.3428 36.5027C42.3867 36.4001 42.447 36.3112 42.5238 36.2359C42.6005 36.1606 42.6903 36.1003 42.7931 36.0552C42.8959 36.01 43.0049 35.9874 43.12 35.9874H46.4876C46.6027 35.9874 46.7117 36.01 46.8145 36.0552C46.9173 36.1003 47.0071 36.1606 47.0838 36.2359C47.1606 36.3112 47.2209 36.4001 47.2647 36.5027C47.3086 36.6054 47.3306 36.7141 47.3306 36.8291V41.0333ZM43.12 36.8291V41.0333H46.4876V36.8291H43.12Z"/>
</mask>
<path d="M47.3306 41.0333C47.3306 41.1483 47.3086 41.2571 47.2647 41.3598C47.2209 41.4623 47.1606 41.5521 47.0838 41.6286C47.0071 41.7053 46.9173 41.7656 46.8145 41.8093C46.7117 41.8531 46.6027 41.875 46.4876 41.875H43.12C43.0049 41.875 42.8959 41.8531 42.7931 41.8093C42.6903 41.7656 42.6005 41.7053 42.5238 41.6286C42.447 41.5521 42.3867 41.4623 42.3428 41.3598C42.2989 41.2571 42.277 41.1483 42.277 41.0333V36.8291C42.277 36.7141 42.2989 36.6054 42.3428 36.5027C42.3867 36.4001 42.447 36.3112 42.5238 36.2359C42.6005 36.1606 42.6903 36.1003 42.7931 36.0552C42.8959 36.01 43.0049 35.9874 43.12 35.9874H46.4876C46.6027 35.9874 46.7117 36.01 46.8145 36.0552C46.9173 36.1003 47.0071 36.1606 47.0838 36.2359C47.1606 36.3112 47.2209 36.4001 47.2647 36.5027C47.3086 36.6054 47.3306 36.7141 47.3306 36.8291V41.0333ZM43.12 36.8291V41.0333H46.4876V36.8291H43.12Z" fill="black"/>
<path d="M47.2647 41.3598L48.1842 41.753L48.1845 41.7524L47.2647 41.3598ZM47.0838 41.6286L46.3775 40.9207L46.3773 40.921L47.0838 41.6286ZM46.8145 41.8093L46.4231 40.8891L46.4224 40.8894L46.8145 41.8093ZM42.7931 41.8093L43.1852 40.8894L43.1845 40.8891L42.7931 41.8093ZM42.5238 41.6286L43.2306 40.9212L43.2298 40.9205L42.5238 41.6286ZM42.3428 41.3598L43.2625 40.967L43.2622 40.9663L42.3428 41.3598ZM42.3428 36.5027L43.2622 36.8962L43.2626 36.8953L42.3428 36.5027ZM42.5238 36.2359L43.224 36.9498L43.224 36.9498L42.5238 36.2359ZM42.7931 36.0552L43.1951 36.9708L43.1954 36.9707L42.7931 36.0552ZM46.8145 36.0552L46.4122 36.9707L46.4125 36.9708L46.8145 36.0552ZM47.0838 36.2359L47.7843 35.5222L47.7838 35.5217L47.0838 36.2359ZM47.2647 36.5027L48.1845 36.1101L48.1843 36.1097L47.2647 36.5027ZM43.12 36.8291V35.8291H42.12V36.8291H43.12ZM43.12 41.0333H42.12V42.0333H43.12V41.0333ZM46.4876 41.0333V42.0333H47.4876V41.0333H46.4876ZM46.4876 36.8291H47.4876V35.8291H46.4876V36.8291ZM46.3306 41.0333C46.3306 41.0266 46.3312 41.0163 46.3338 41.0034C46.3364 40.9905 46.3404 40.9781 46.345 40.9672L48.1845 41.7524C48.2827 41.5223 48.3306 41.2796 48.3306 41.0333H46.3306ZM46.3453 40.9665C46.3472 40.9621 46.3509 40.9547 46.3569 40.9458C46.363 40.9368 46.37 40.9282 46.3775 40.9207L47.7901 42.3365C47.9604 42.1667 48.0917 41.9692 48.1842 41.753L46.3453 40.9665ZM46.3773 40.921C46.3843 40.914 46.3926 40.907 46.4017 40.901C46.4107 40.8949 46.4183 40.8911 46.4231 40.8891L47.206 42.7295C47.4235 42.637 47.6209 42.5055 47.7904 42.3363L46.3773 40.921ZM46.4224 40.8894C46.4335 40.8847 46.4459 40.8807 46.4587 40.8782C46.4714 40.8756 46.4815 40.875 46.4876 40.875V42.875C46.7331 42.875 46.9759 42.8276 47.2067 42.7292L46.4224 40.8894ZM46.4876 40.875H43.12V42.875H46.4876V40.875ZM43.12 40.875C43.1261 40.875 43.1362 40.8756 43.1489 40.8782C43.1617 40.8807 43.1741 40.8847 43.1852 40.8894L42.4009 42.7292C42.6317 42.8276 42.8745 42.875 43.12 42.875V40.875ZM43.1845 40.8891C43.1892 40.8911 43.1968 40.8949 43.2058 40.9009C43.2149 40.907 43.2234 40.914 43.2306 40.9212L41.817 42.336C41.9867 42.5056 42.1843 42.6371 42.4016 42.7295L43.1845 40.8891ZM43.2298 40.9205C43.2374 40.928 43.2445 40.9366 43.2507 40.9458C43.2568 40.9549 43.2605 40.9624 43.2625 40.967L41.4232 41.7525C41.5157 41.9691 41.6473 42.1668 41.8177 42.3368L43.2298 40.9205ZM43.2622 40.9663C43.2671 40.9778 43.2711 40.9906 43.2738 41.0037C43.2764 41.0167 43.277 41.027 43.277 41.0333H41.277C41.277 41.2789 41.3246 41.522 41.4235 41.7532L43.2622 40.9663ZM43.277 41.0333V36.8291H41.277V41.0333H43.277ZM43.277 36.8291C43.277 36.8355 43.2764 36.8458 43.2738 36.8588C43.2711 36.872 43.2671 36.8847 43.2622 36.8962L41.4235 36.1093C41.3246 36.3404 41.277 36.5835 41.277 36.8291H43.277ZM43.2626 36.8953C43.2602 36.9008 43.2558 36.9097 43.2486 36.9202C43.2414 36.9309 43.233 36.941 43.224 36.9498L41.8236 35.5219C41.65 35.6922 41.5165 35.8913 41.4231 36.1101L43.2626 36.8953ZM43.224 36.9498C43.2182 36.9555 43.2119 36.9606 43.2058 36.9646C43.1999 36.9686 43.1959 36.9705 43.1951 36.9708L42.391 35.1396C42.1821 35.2313 41.9902 35.3584 41.8236 35.5219L43.224 36.9498ZM43.1954 36.9707C43.1833 36.976 43.1695 36.9805 43.1548 36.9836C43.1403 36.9866 43.1282 36.9874 43.12 36.9874V34.9874C42.87 34.9874 42.6237 35.0373 42.3908 35.1397L43.1954 36.9707ZM43.12 36.9874H46.4876V34.9874H43.12V36.9874ZM46.4876 36.9874C46.4794 36.9874 46.4673 36.9866 46.4527 36.9836C46.4381 36.9805 46.4243 36.976 46.4122 36.9707L47.2168 35.1397C46.9839 35.0373 46.7376 34.9874 46.4876 34.9874V36.9874ZM46.4125 36.9708C46.4116 36.9704 46.4076 36.9686 46.4017 36.9646C46.3957 36.9605 46.3895 36.9556 46.3839 36.95L47.7838 35.5217C47.6173 35.3585 47.4257 35.2314 47.2166 35.1396L46.4125 36.9708ZM46.3834 36.9495C46.3744 36.9408 46.3661 36.9308 46.3589 36.9202C46.3518 36.9098 46.3475 36.9011 46.3452 36.8957L48.1843 36.1097C48.0909 35.8913 47.9576 35.6923 47.7843 35.5222L46.3834 36.9495ZM46.345 36.8953C46.3404 36.8844 46.3365 36.872 46.3338 36.8591C46.3312 36.8462 46.3306 36.8358 46.3306 36.8291H48.3306C48.3306 36.5828 48.2827 36.3401 48.1845 36.1101L46.345 36.8953ZM46.3306 36.8291V41.0333H48.3306V36.8291H46.3306ZM42.12 36.8291V41.0333H44.12V36.8291H42.12ZM43.12 42.0333H46.4876V40.0333H43.12V42.0333ZM47.4876 41.0333V36.8291H45.4876V41.0333H47.4876ZM46.4876 35.8291H43.12V37.8291H46.4876V35.8291Z" fill="black" mask="url(#path-11-inside-4_128_2)"/>
<mask id="path-13-inside-5_128_2" fill="white">
<path d="M48.338 35.9874H53.0544V36.8291H51.1177V41.875H50.2747V36.8291H48.338V35.9874Z"/>
</mask>
<path d="M48.338 35.9874H53.0544V36.8291H51.1177V41.875H50.2747V36.8291H48.338V35.9874Z" fill="black"/>
<path d="M48.338 35.9874V34.9874H47.338V35.9874H48.338ZM53.0544 35.9874H54.0544V34.9874H53.0544V35.9874ZM53.0544 36.8291V37.8291H54.0544V36.8291H53.0544ZM51.1177 36.8291V35.8291H50.1177V36.8291H51.1177ZM51.1177 41.875V42.875H52.1177V41.875H51.1177ZM50.2747 41.875H49.2747V42.875H50.2747V41.875ZM50.2747 36.8291H51.2747V35.8291H50.2747V36.8291ZM48.338 36.8291H47.338V37.8291H48.338V36.8291ZM48.338 36.9874H53.0544V34.9874H48.338V36.9874ZM52.0544 35.9874V36.8291H54.0544V35.9874H52.0544ZM53.0544 35.8291H51.1177V37.8291H53.0544V35.8291ZM50.1177 36.8291V41.875H52.1177V36.8291H50.1177ZM51.1177 40.875H50.2747V42.875H51.1177V40.875ZM51.2747 41.875V36.8291H49.2747V41.875H51.2747ZM50.2747 35.8291H48.338V37.8291H50.2747V35.8291ZM49.338 36.8291V35.9874H47.338V36.8291H49.338Z" fill="black" mask="url(#path-13-inside-5_128_2)"/>
<path d="M38.5725 26.6834L38.8657 26.3589L38.5831 26.0251L33.6801 20.2332L34.9747 19.2976L40.8698 26.2614L34.8529 33.1734L33.711 32.0629L38.5725 26.6834Z" fill="black" stroke="black"/>
<path d="M17.4169 26.0251L17.1343 26.3589L17.4275 26.6834L22.289 32.0629L21.1471 33.1734L15.1302 26.2614L21.0253 19.2976L22.3199 20.2332L17.4169 26.0251Z" fill="black" stroke="black"/>
<path d="M30.9625 20.4999L25.7561 32.3669L24.7492 31.9627L29.9556 20.0957L30.9625 20.4999Z" fill="black" stroke="black"/>
</g>
<defs>
<clipPath id="clip0_128_2">
<rect width="55" height="60" fill="white" transform="translate(0.5)"/>
</clipPath>
</defs>
</svg>
