<svg viewBox="0 0 1920 371" fill="none" xmlns="http://www.w3.org/2000/svg">
<path d="M1920 272.38L1919.93 28.9297C1917.25 28.321 1914.48 28.0976 1911.7 28.2862L1840.78 33.0974C1832.85 33.6356 1825.44 37.4838 1820.2 43.7955L1786.7 84.0992L1764.34 70.6056C1757.43 66.4337 1749.23 65.3258 1741.55 67.5258L1739.54 68.1014C1736.24 61.2702 1730.69 55.9024 1723.91 53.0414L1657.88 25.1868C1650.51 22.0745 1642.27 22.1776 1634.98 25.4735L1569.73 54.9711C1565.58 56.8441 1561.94 59.6637 1559.02 63.1754L1542.59 45.6973C1536.99 39.7289 1529.36 36.3494 1521.41 36.3026L1450.39 35.8846C1442.44 35.8379 1434.79 39.1287 1429.14 45.0333L1378.78 97.6912C1378.08 98.422 1377.42 99.1859 1376.8 99.9786L1329.12 91.7291C1324.38 90.9092 1319.58 91.3155 1315.09 92.8362L1310.69 83.0114C1307.29 75.4397 1301.2 69.5959 1293.72 66.759L1226.81 41.3451C1219.61 38.6106 1211.7 38.8943 1204.71 42.0979L1174.69 21.7116C1168.01 17.1779 1159.91 15.6232 1152.16 17.388L1082.73 33.2021C1077.65 34.3601 1072.99 36.8925 1069.17 40.4789L1005.56 14.3205C998.141 11.271 989.881 11.4538 982.593 14.8282L917.68 44.8846C915.851 45.7314 914.121 46.7618 912.51 47.9538L859.671 6.31038C853.29 1.28144 845.278 -0.872421 837.399 0.322543L767.159 10.9752C759.272 12.1714 752.163 16.6255 747.401 23.3557L713.722 70.9583C708.984 66.9794 703.187 64.5725 697.065 64.1418L654.752 61.1624C651.266 57.47 646.944 54.7026 642.135 53.1703L574.08 31.4884C566.47 29.0639 558.269 29.9244 551.276 33.8811L488.735 69.2653C482.971 72.5258 478.421 77.6725 475.715 83.8736C475.364 83.8259 475.014 83.777 474.661 83.7423L427.568 79.1184L390.537 43.6358C384.64 37.985 376.86 35.031 368.908 35.4236L319.93 37.842L259.48 13.6208C252.041 10.6398 243.782 10.8984 236.523 14.34L171.862 44.9931C167.296 47.1575 163.362 50.4702 160.367 54.5817C156.482 54.9858 152.675 56.1903 149.17 58.1734L86.6293 93.5573C81.2125 96.6217 76.8706 101.354 74.1205 107.06L63.0726 100.391C56.1617 96.2188 47.9636 95.1109 40.2818 97.3099L0 108.844V199.394V343.292V380H1919.92V272.386L1920 272.38Z" fill="#232323"/>
</svg>
