<svg viewBox="0 0 57 62" fill="none" xmlns="http://www.w3.org/2000/svg">
<path d="M53.5452 47.7417L30.908 60.3711C29.4028 61.2109 27.5491 61.2095 26.0452 60.3675L3.42817 47.7043C1.92427 46.8623 0.998661 45.3076 1 43.6258L1.02013 18.3332C1.02147 16.6514 1.94956 15.098 3.4548 14.2583L26.092 1.62886C27.5972 0.789084 29.4509 0.790469 30.9548 1.63249L53.5718 14.2957C55.0757 15.1377 56.0013 16.6924 56 18.3742L55.9799 43.6668C55.9785 45.3486 55.0504 46.902 53.5452 47.7417Z" fill="white"/>
<path d="M5.28117 40.4667C5.16607 40.4667 5.05707 40.4439 4.95426 40.3982C4.85145 40.3526 4.76166 40.2916 4.68493 40.2154C4.60814 40.1392 4.54783 40.0492 4.504 39.9453C4.4601 39.8415 4.43821 39.7313 4.43821 39.615V37.9114C4.43821 37.795 4.4601 37.685 4.504 37.5811C4.54783 37.4772 4.60814 37.3872 4.68493 37.311C4.76166 37.2349 4.85145 37.1739 4.95426 37.1282C5.05707 37.0824 5.16607 37.0596 5.28117 37.0596H8.14318C8.25833 37.0596 8.36728 37.0824 8.47009 37.1282C8.57289 37.1739 8.66263 37.2349 8.73942 37.311C8.81614 37.3872 8.87646 37.4772 8.92035 37.5811C8.96418 37.685 8.98613 37.795 8.98613 37.9114V38.6801H8.14318V37.9114H5.28117V39.615H8.14318C8.25833 39.615 8.36728 39.6371 8.47009 39.6815C8.57289 39.7258 8.66263 39.7868 8.73942 39.8643C8.81614 39.9419 8.87646 40.0325 8.92035 40.1364C8.96418 40.2403 8.98613 40.3504 8.98613 40.4667V42.1662C8.98613 42.2825 8.96418 42.3926 8.92035 42.4965C8.87646 42.6004 8.81614 42.6911 8.73942 42.7686C8.66263 42.8463 8.57289 42.9072 8.47009 42.9515C8.36728 42.9958 8.25833 43.018 8.14318 43.018H5.19896C5.08382 43.018 4.97481 42.9958 4.87206 42.9515C4.76925 42.9072 4.6794 42.8463 4.60267 42.7686C4.52594 42.6911 4.46558 42.6004 4.42174 42.4965C4.3779 42.3926 4.35596 42.2825 4.35596 42.1662V41.4016H5.19896V42.1662H8.14318V40.4667H5.28117Z" fill="black"/>
<path d="M15.5572 42.1662C15.5572 42.2825 15.5352 42.3926 15.4913 42.4965C15.4475 42.6004 15.3871 42.6911 15.3104 42.7686C15.2336 42.8463 15.1439 42.9072 15.0411 42.9515C14.9383 42.9958 14.8293 43.018 14.7142 43.018H13.4518V44.1232H12.6088V43.018H11.3464C11.2313 43.018 11.1223 42.9958 11.0195 42.9515C10.9167 42.9072 10.8269 42.8463 10.7501 42.7686C10.6733 42.6911 10.613 42.6004 10.5692 42.4965C10.5253 42.3926 10.5034 42.2825 10.5034 42.1662V37.9114C10.5034 37.795 10.5253 37.685 10.5692 37.5811C10.613 37.4772 10.6733 37.3872 10.7501 37.311C10.8269 37.2349 10.9167 37.1739 11.0195 37.1282C11.1223 37.0824 11.2313 37.0596 11.3464 37.0596H14.7142C14.8293 37.0596 14.9383 37.0824 15.0411 37.1282C15.1439 37.1739 15.2336 37.2349 15.3104 37.311C15.3871 37.3872 15.4475 37.4772 15.4913 37.5811C15.5352 37.685 15.5572 37.795 15.5572 37.9114V42.1662ZM13.4518 41.4764V42.1662H14.7142V37.9114H11.3464V42.1662H12.6088V41.4764H13.4518Z" fill="black"/>
<path d="M17.0703 37.0596H17.9133V42.1662H21.281V37.0596H22.1241V42.1662C22.1241 42.2825 22.1021 42.3926 22.0582 42.4965C22.0144 42.6004 21.954 42.6911 21.8773 42.7686C21.8005 42.8463 21.7108 42.9072 21.608 42.9515C21.5051 42.9958 21.3962 43.018 21.281 43.018H17.9133C17.7982 43.018 17.6892 42.9958 17.5864 42.9515C17.4836 42.9072 17.3938 42.8463 17.317 42.7686C17.2402 42.6911 17.1799 42.6004 17.1361 42.4965C17.0922 42.3926 17.0703 42.2825 17.0703 42.1662V37.0596Z" fill="black"/>
<path d="M26.2483 37.0596L28.5222 43.018H27.6793L27.157 41.6468H24.4965L23.9743 43.018H23.1313L25.4053 37.0596H26.2483ZM24.8173 40.795H26.8322L25.8288 38.169L24.8173 40.795Z" fill="black"/>
<path d="M29.5342 43.018V37.0596H32.5318C32.847 37.0596 33.1315 37.1088 33.3851 37.2071C33.6386 37.3055 33.8552 37.4454 34.0348 37.6268C34.2143 37.8082 34.3528 38.0277 34.4502 38.2854C34.5474 38.543 34.5961 38.8296 34.5961 39.1454V40.9322C34.5961 41.2479 34.5474 41.5346 34.4502 41.7922C34.3528 42.0499 34.2143 42.2694 34.0348 42.4508C33.8552 42.6323 33.6386 42.7722 33.3851 42.8705C33.1315 42.9688 32.847 43.018 32.5318 43.018H29.5342ZM32.5318 42.1662C32.9239 42.1662 33.2254 42.0596 33.4365 41.8462C33.6476 41.633 33.7531 41.3283 33.7531 40.9322V39.1454C33.7531 38.9516 33.7257 38.7785 33.6709 38.626C33.616 38.4738 33.5358 38.3443 33.4304 38.2376C33.3248 38.131 33.1966 38.05 33.0458 37.9945C32.895 37.9392 32.7237 37.9114 32.5318 37.9114H30.3771V42.1662H32.5318Z" fill="black"/>
<path d="M39.7855 39.91C39.9088 39.9488 40.0211 40.0042 40.1227 40.0762C40.2241 40.1482 40.3104 40.2403 40.3817 40.3526C40.4529 40.4647 40.5078 40.597 40.5462 40.7493C40.5845 40.9017 40.6037 41.0762 40.6037 41.2728V41.572C40.6037 42.536 40.1268 43.018 39.1728 43.018H35.9448V37.0596H39.0041C39.9582 37.0596 40.4352 37.543 40.4352 38.5097V38.6177C40.4352 38.953 40.3823 39.2265 40.2768 39.4384C40.1713 39.6503 40.0075 39.8075 39.7855 39.91ZM36.7713 37.8947V39.5901H39.0371C39.2399 39.5818 39.3859 39.5257 39.475 39.4218C39.564 39.3179 39.6087 39.1579 39.6087 38.9418V38.5513C39.6087 38.3242 39.5593 38.158 39.4606 38.0527C39.3619 37.9474 39.2016 37.8947 38.9794 37.8947H36.7713ZM36.7713 40.4211V42.1828H39.1481C39.3701 42.1828 39.5305 42.1302 39.6292 42.0249C39.7279 41.9197 39.7772 41.7548 39.7772 41.5305V41.0693C39.7772 40.8421 39.7279 40.6773 39.6292 40.5748C39.5305 40.4723 39.3701 40.4211 39.1481 40.4211H36.7713Z" fill="black"/>
<path d="M46.9199 42.1662C46.9199 42.2825 46.8979 42.3926 46.8541 42.4965C46.8102 42.6004 46.7499 42.6911 46.6732 42.7686C46.5963 42.8463 46.5067 42.9072 46.4038 42.9515C46.301 42.9958 46.192 43.018 46.0769 43.018H42.7091C42.5941 43.018 42.4851 42.9958 42.3822 42.9515C42.2794 42.9072 42.1897 42.8463 42.1129 42.7686C42.0361 42.6911 41.9758 42.6004 41.932 42.4965C41.8881 42.3926 41.8662 42.2825 41.8662 42.1662V37.9114C41.8662 37.795 41.8881 37.685 41.932 37.5811C41.9758 37.4772 42.0361 37.3872 42.1129 37.311C42.1897 37.2349 42.2794 37.1739 42.3822 37.1282C42.4851 37.0824 42.5941 37.0596 42.7091 37.0596H46.0769C46.192 37.0596 46.301 37.0824 46.4038 37.1282C46.5067 37.1739 46.5963 37.2349 46.6732 37.311C46.7499 37.3872 46.8102 37.4772 46.8541 37.5811C46.8979 37.685 46.9199 37.795 46.9199 37.9114V42.1662ZM42.7091 37.9114V42.1662H46.0769V37.9114H42.7091Z" fill="black"/>
<path d="M47.9272 37.0596H52.6438V37.9114H50.7071V43.018H49.864V37.9114H47.9272V37.0596Z" fill="black"/>
<path d="M35.5573 19.4844L33.4497 21.0258L38.7018 27.3043L33.5168 33.1105L35.3832 34.9471L42.0291 27.2211L35.5573 19.4844Z" fill="black"/>
<path d="M21.4426 19.4844L14.9707 27.2211L21.6166 34.9471L23.483 33.1105L18.2981 27.3043L23.5501 21.0258L21.4426 19.4844Z" fill="black"/>
<path d="M30.1926 20.3245L24.584 33.2613L26.5194 34.0476L32.128 21.1108L30.1926 20.3245Z" fill="black"/>
</svg>
