<svg width="1920" height="445" viewBox="0 0 1920 445" fill="none" xmlns="http://www.w3.org/2000/svg">
<path d="M0.000141893 204.679L0.0745573 418.856C2.75253 419.392 5.51957 419.588 8.30136 419.423L79.2162 415.19C87.151 414.716 94.5563 411.331 99.803 405.778L133.304 370.321L155.657 382.192C162.573 385.862 170.768 386.837 178.453 384.901L180.463 384.395C183.763 390.405 189.306 395.127 196.091 397.644L262.119 422.149C269.495 424.887 277.729 424.797 285.025 421.897L350.273 395.946C354.417 394.298 358.062 391.818 360.977 388.729L377.406 404.105C383.012 409.356 390.637 412.329 398.592 412.37L469.607 412.738C477.562 412.779 485.207 409.884 490.863 404.689L541.221 358.363C541.92 357.72 542.581 357.048 543.203 356.351L590.879 363.608C595.621 364.33 600.423 363.972 604.906 362.634L609.308 371.278C612.705 377.939 618.801 383.08 626.277 385.576L693.194 407.934C700.392 410.34 708.298 410.09 715.293 407.272L745.311 425.207C751.986 429.195 760.091 430.563 767.836 429.01L837.272 415.098C842.354 414.079 847.011 411.851 850.831 408.696L914.443 431.709C921.859 434.392 930.119 434.231 937.407 431.262L1002.32 404.82C1004.15 404.075 1005.88 403.168 1007.49 402.12L1060.33 438.756C1066.71 443.18 1074.72 445.075 1082.6 444.024L1152.84 434.652C1160.73 433.6 1167.84 429.681 1172.6 423.76L1206.28 381.881C1211.02 385.382 1216.81 387.499 1222.93 387.878L1265.25 390.499C1268.73 393.748 1273.06 396.183 1277.87 397.531L1345.92 416.605C1353.53 418.738 1361.73 417.981 1368.72 414.5L1431.27 383.371C1437.03 380.502 1441.58 375.975 1444.29 370.519C1444.64 370.561 1444.99 370.604 1445.34 370.635L1492.43 374.703L1529.46 405.919C1535.36 410.89 1543.14 413.489 1551.09 413.143L1600.07 411.016L1660.52 432.324C1667.96 434.947 1676.22 434.72 1683.48 431.692L1748.14 404.725C1752.7 402.82 1756.64 399.906 1759.63 396.289C1763.52 395.933 1767.33 394.874 1770.83 393.129L1833.37 362C1838.79 359.304 1843.13 355.14 1845.88 350.121L1856.93 355.988C1863.84 359.658 1872.04 360.633 1879.72 358.698L1920 348.551V268.889V142.294V110L0.0762652 110V204.674L0.000141893 204.679Z" fill="#232323"/>
<rect y="-52" width="1920" height="162" fill="#232323"/>
</svg>
